<svg xmlns="http://www.w3.org/2000/svg" viewBox="0 0 600 400">
  <defs>
    <linearGradient id="bg" x1="0%" y1="100%" x2="100%" y2="0%">
      <stop offset="0%" style="stop-color:#A5D6A7;stop-opacity:1" />
      <stop offset="100%" style="stop-color:#43A047;stop-opacity:1" />
    </linearGradient>
    <linearGradient id="accent" x1="0%" y1="0%" x2="0%" y2="100%">
      <stop offset="0%" style="stop-color:#ffffff;stop-opacity:0.15" />
      <stop offset="100%" style="stop-color:#ffffff;stop-opacity:0.02" />
    </linearGradient>
  </defs>
  <rect width="600" height="400" fill="url(#bg)" rx="0"/>
  <circle cx="400" cy="60" r="165" fill="url(#accent)"/>
  <circle cx="550" cy="310" r="90" fill="url(#accent)"/>
  <circle cx="100" cy="320" r="65" fill="url(#accent)"/>
  <g transform="translate(260, 150)" fill="none" stroke="white" stroke-width="3" stroke-linecap="round" stroke-linejoin="round" opacity="0.9">
    <circle cx="40" cy="30" r="28"/>
    <line x1="40" y1="10" x2="40" y2="30"/>
    <line x1="40" y1="30" x2="55" y2="38"/>
    <line x1="40" y1="2" x2="40" y2="6"/>
    <line x1="40" y1="54" x2="40" y2="58"/>
    <line x1="14" y1="30" x2="18" y2="30"/>
    <line x1="62" y1="30" x2="66" y2="30"/>
  </g>
  <circle cx="200" cy="100" r="5" fill="white" opacity="0.2"/>
  <circle cx="430" cy="160" r="3" fill="white" opacity="0.25"/>
  <circle cx="100" cy="280" r="4" fill="white" opacity="0.2"/>
  <circle cx="520" cy="310" r="3" fill="white" opacity="0.15"/>
</svg>
