<svg xmlns="http://www.w3.org/2000/svg" viewBox="0 0 600 400">
  <defs>
    <linearGradient id="bg" x1="100%" y1="0%" x2="0%" y2="100%">
      <stop offset="0%" style="stop-color:#81C784;stop-opacity:1" />
      <stop offset="100%" style="stop-color:#388E3C;stop-opacity:1" />
    </linearGradient>
    <linearGradient id="accent" x1="0%" y1="0%" x2="0%" y2="100%">
      <stop offset="0%" style="stop-color:#ffffff;stop-opacity:0.15" />
      <stop offset="100%" style="stop-color:#ffffff;stop-opacity:0.02" />
    </linearGradient>
  </defs>
  <rect width="600" height="400" fill="url(#bg)" rx="0"/>
  <circle cx="500" cy="60" r="140" fill="url(#accent)"/>
  <circle cx="80" cy="300" r="120" fill="url(#accent)"/>
  <circle cx="450" cy="340" r="70" fill="url(#accent)"/>
  <g transform="translate(260, 150)" fill="none" stroke="white" stroke-width="3" stroke-linecap="round" stroke-linejoin="round" opacity="0.9">
    <circle cx="40" cy="30" r="28"/>
    <line x1="40" y1="10" x2="40" y2="30"/>
    <line x1="40" y1="30" x2="55" y2="38"/>
    <line x1="40" y1="2" x2="40" y2="6"/>
    <line x1="40" y1="54" x2="40" y2="58"/>
    <line x1="14" y1="30" x2="18" y2="30"/>
    <line x1="62" y1="30" x2="66" y2="30"/>
  </g>
  <circle cx="420" cy="80" r="4" fill="white" opacity="0.25"/>
  <circle cx="130" cy="260" r="3" fill="white" opacity="0.2"/>
  <circle cx="480" cy="200" r="5" fill="white" opacity="0.15"/>
  <circle cx="200" cy="320" r="3" fill="white" opacity="0.2"/>
</svg>
