<svg xmlns="http://www.w3.org/2000/svg" viewBox="0 0 600 400">
  <defs>
    <linearGradient id="bg" x1="0%" y1="0%" x2="100%" y2="100%">
      <stop offset="0%" style="stop-color:#FFD54F;stop-opacity:1" />
      <stop offset="100%" style="stop-color:#FF8F00;stop-opacity:1" />
    </linearGradient>
    <linearGradient id="accent" x1="0%" y1="0%" x2="0%" y2="100%">
      <stop offset="0%" style="stop-color:#ffffff;stop-opacity:0.15" />
      <stop offset="100%" style="stop-color:#ffffff;stop-opacity:0.02" />
    </linearGradient>
  </defs>
  <rect width="600" height="400" fill="url(#bg)" rx="0"/>
  <circle cx="450" cy="100" r="170" fill="url(#accent)"/>
  <circle cx="150" cy="320" r="90" fill="url(#accent)"/>
  <circle cx="500" cy="280" r="75" fill="url(#accent)"/>
  <g transform="translate(260, 145)" fill="none" stroke="white" stroke-width="3" stroke-linecap="round" stroke-linejoin="round" opacity="0.9">
    <path d="M40 65 C40 65 70 45 70 25 C70 10 55 0 40 15 C25 0 10 10 10 25 C10 45 40 65 40 65Z"/>
  </g>
  <circle cx="350" cy="70" r="3" fill="white" opacity="0.25"/>
  <circle cx="100" cy="200" r="4" fill="white" opacity="0.2"/>
  <circle cx="520" cy="260" r="5" fill="white" opacity="0.15"/>
  <circle cx="250" cy="340" r="3" fill="white" opacity="0.2"/>
</svg>
