<svg xmlns="http://www.w3.org/2000/svg" viewBox="0 0 600 400">
  <defs>
    <linearGradient id="bg" x1="0%" y1="0%" x2="100%" y2="100%">
      <stop offset="0%" style="stop-color:#2196F3;stop-opacity:1" />
      <stop offset="100%" style="stop-color:#0D47A1;stop-opacity:1" />
    </linearGradient>
    <linearGradient id="accent" x1="0%" y1="0%" x2="0%" y2="100%">
      <stop offset="0%" style="stop-color:#ffffff;stop-opacity:0.15" />
      <stop offset="100%" style="stop-color:#ffffff;stop-opacity:0.02" />
    </linearGradient>
  </defs>
  <rect width="600" height="400" fill="url(#bg)" rx="0"/>
  <circle cx="300" cy="50" r="155" fill="url(#accent)"/>
  <circle cx="550" cy="300" r="95" fill="url(#accent)"/>
  <circle cx="80" cy="330" r="70" fill="url(#accent)"/>
  <g transform="translate(255, 150)" fill="none" stroke="white" stroke-width="3.5" stroke-linecap="round" opacity="0.9">
    <rect x="0" y="25" width="12" height="30" rx="2"/>
    <rect x="68" y="25" width="12" height="30" rx="2"/>
    <line x1="12" y1="40" x2="68" y2="40"/>
    <rect x="15" y="20" width="10" height="40" rx="2"/>
    <rect x="55" y="20" width="10" height="40" rx="2"/>
    <rect x="28" y="30" width="24" height="20" rx="3"/>
  </g>
  <circle cx="180" cy="70" r="4" fill="white" opacity="0.3"/>
  <circle cx="400" cy="130" r="3" fill="white" opacity="0.2"/>
  <circle cx="520" cy="280" r="4" fill="white" opacity="0.2"/>
  <circle cx="280" cy="310" r="5" fill="white" opacity="0.15"/>
</svg>
