<svg xmlns="http://www.w3.org/2000/svg" viewBox="0 0 600 400">
  <defs>
    <linearGradient id="bg" x1="0%" y1="100%" x2="100%" y2="0%">
      <stop offset="0%" style="stop-color:#29B6F6;stop-opacity:1" />
      <stop offset="100%" style="stop-color:#0277BD;stop-opacity:1" />
    </linearGradient>
    <linearGradient id="accent" x1="0%" y1="0%" x2="0%" y2="100%">
      <stop offset="0%" style="stop-color:#ffffff;stop-opacity:0.15" />
      <stop offset="100%" style="stop-color:#ffffff;stop-opacity:0.02" />
    </linearGradient>
  </defs>
  <rect width="600" height="400" fill="url(#bg)" rx="0"/>
  <circle cx="120" cy="80" r="150" fill="url(#accent)"/>
  <circle cx="500" cy="300" r="110" fill="url(#accent)"/>
  <circle cx="300" cy="350" r="60" fill="url(#accent)"/>
  <g transform="translate(255, 150)" fill="none" stroke="white" stroke-width="3.5" stroke-linecap="round" opacity="0.9">
    <rect x="0" y="25" width="12" height="30" rx="2"/>
    <rect x="68" y="25" width="12" height="30" rx="2"/>
    <line x1="12" y1="40" x2="68" y2="40"/>
    <rect x="15" y="20" width="10" height="40" rx="2"/>
    <rect x="55" y="20" width="10" height="40" rx="2"/>
    <rect x="28" y="30" width="24" height="20" rx="3"/>
  </g>
  <circle cx="200" cy="90" r="5" fill="white" opacity="0.2"/>
  <circle cx="450" cy="150" r="3" fill="white" opacity="0.25"/>
  <circle cx="100" cy="250" r="4" fill="white" opacity="0.15"/>
  <circle cx="500" cy="330" r="3" fill="white" opacity="0.2"/>
</svg>
