<svg xmlns="http://www.w3.org/2000/svg" viewBox="0 0 600 400">
  <defs>
    <linearGradient id="bg" x1="0%" y1="100%" x2="100%" y2="0%">
      <stop offset="0%" style="stop-color:#FF7043;stop-opacity:1" />
      <stop offset="100%" style="stop-color:#F4511E;stop-opacity:1" />
    </linearGradient>
    <linearGradient id="accent" x1="0%" y1="0%" x2="0%" y2="100%">
      <stop offset="0%" style="stop-color:#ffffff;stop-opacity:0.15" />
      <stop offset="100%" style="stop-color:#ffffff;stop-opacity:0.02" />
    </linearGradient>
  </defs>
  <rect width="600" height="400" fill="url(#bg)" rx="0"/>
  <circle cx="400" cy="60" r="165" fill="url(#accent)"/>
  <circle cx="550" cy="310" r="90" fill="url(#accent)"/>
  <circle cx="100" cy="320" r="65" fill="url(#accent)"/>
  <g transform="translate(260, 150)" fill="none" stroke="white" stroke-width="3" stroke-linecap="round" stroke-linejoin="round" opacity="0.9">
    <line x1="40" y1="0" x2="40" y2="60"/>
    <line x1="10" y1="60" x2="70" y2="60"/>
    <path d="M10 20 L40 0 L70 20"/>
    <path d="M0 20 Q10 40 20 20"/>
    <path d="M60 20 Q70 40 80 20"/>
  </g>
  <circle cx="200" cy="100" r="5" fill="white" opacity="0.2"/>
  <circle cx="430" cy="160" r="3" fill="white" opacity="0.25"/>
  <circle cx="100" cy="280" r="4" fill="white" opacity="0.2"/>
  <circle cx="520" cy="310" r="3" fill="white" opacity="0.15"/>
</svg>
