<svg xmlns="http://www.w3.org/2000/svg" viewBox="0 0 600 400">
  <defs>
    <linearGradient id="bg" x1="0%" y1="0%" x2="100%" y2="100%">
      <stop offset="0%" style="stop-color:#F44336;stop-opacity:1" />
      <stop offset="100%" style="stop-color:#AD1457;stop-opacity:1" />
    </linearGradient>
    <linearGradient id="accent" x1="0%" y1="0%" x2="0%" y2="100%">
      <stop offset="0%" style="stop-color:#ffffff;stop-opacity:0.15" />
      <stop offset="100%" style="stop-color:#ffffff;stop-opacity:0.02" />
    </linearGradient>
  </defs>
  <rect width="600" height="400" fill="url(#bg)" rx="0"/>
  <circle cx="300" cy="50" r="155" fill="url(#accent)"/>
  <circle cx="550" cy="300" r="95" fill="url(#accent)"/>
  <circle cx="80" cy="330" r="70" fill="url(#accent)"/>
  <g transform="translate(260, 150)" fill="none" stroke="white" stroke-width="3" stroke-linecap="round" stroke-linejoin="round" opacity="0.9">
    <line x1="40" y1="0" x2="40" y2="60"/>
    <line x1="10" y1="60" x2="70" y2="60"/>
    <path d="M10 20 L40 0 L70 20"/>
    <path d="M0 20 Q10 40 20 20"/>
    <path d="M60 20 Q70 40 80 20"/>
  </g>
  <circle cx="180" cy="70" r="4" fill="white" opacity="0.3"/>
  <circle cx="400" cy="130" r="3" fill="white" opacity="0.2"/>
  <circle cx="520" cy="280" r="4" fill="white" opacity="0.2"/>
  <circle cx="280" cy="310" r="5" fill="white" opacity="0.15"/>
</svg>
