<svg xmlns="http://www.w3.org/2000/svg" viewBox="0 0 200 170" width="200" height="170">
  <path d="M90.04 2.87L18.32 29.56a6.15 6.15 0 0 0-.07 11.47l72.47 27.53a17.54 17.54 0 0 0 12.41 0l72.47-27.53a6.15 6.15 0 0 0-.07-11.47L103.82 2.87a17.54 17.54 0 0 0-13.78 0z" fill="#FCB400"/>
  <path d="M106.38 88.27V157a3.18 3.18 0 0 0 4.31 2.97l78.12-31.67a6.37 6.37 0 0 0 3.92-5.88V54.73a3.18 3.18 0 0 0-4.31-2.97l-78.12 31.67a6.37 6.37 0 0 0-3.92 4.84z" fill="#18BFFF"/>
  <path d="M87.62 88.27V157a3.18 3.18 0 0 1-4.31 2.97L5.19 128.3A6.37 6.37 0 0 1 1.27 122.42V54.73a3.18 3.18 0 0 1 4.31-2.97l78.12 31.67a6.37 6.37 0 0 1 3.92 4.84z" fill="#F82B60"/>
  <path d="M87.62 88.27V157a3.18 3.18 0 0 1-4.31 2.97L5.19 128.3A6.37 6.37 0 0 1 1.27 122.42V54.73a3.18 3.18 0 0 1 4.31-2.97l78.12 31.67a6.37 6.37 0 0 1 3.92 4.84z" fill="#F82B60" opacity="0.25"/>
</svg>
