<svg xmlns="http://www.w3.org/2000/svg" viewBox="0 0 48 48" width="48" height="48">
  <rect width="48" height="48" rx="10" fill="#fff"/>
  <path d="M8 14a3 3 0 0 1 3-3h26a3 3 0 0 1 3 3v20a3 3 0 0 1-3 3H11a3 3 0 0 1-3-3V14z" fill="#E8EAED"/>
  <path d="M8 14a3 3 0 0 1 3-3h26a3 3 0 0 1 3 3l-16 12L8 14z" fill="#EA4335"/>
  <path d="M8 14v20a3 3 0 0 0 3 3h4V18l9 7 9-7v19h4a3 3 0 0 0 3-3V14l-16 12L8 14z" fill="#C5221F" opacity="0.15"/>
  <path d="M8 14l16 12 16-12" stroke="#D93025" stroke-width="0.5" fill="none"/>
  <rect x="8" y="11" width="6" height="26" rx="2" fill="#4285F4"/>
  <rect x="34" y="11" width="6" height="26" rx="2" fill="#4285F4"/>
  <path d="M8 14l16 12" stroke="#34A853" stroke-width="2.5" fill="none" stroke-linecap="round"/>
  <path d="M40 14l-16 12" stroke="#FBBC04" stroke-width="2.5" fill="none" stroke-linecap="round"/>
</svg>
