<svg xmlns="http://www.w3.org/2000/svg" viewBox="0 0 48 48" width="48" height="48">
  <rect width="48" height="48" rx="10" fill="#fff"/>
  <rect x="8" y="12" width="32" height="28" rx="3" fill="#4285F4"/>
  <rect x="8" y="8" width="32" height="10" rx="3" fill="#1967D2"/>
  <rect x="12" y="6" width="4" height="6" rx="1" fill="#1A73E8"/>
  <rect x="32" y="6" width="4" height="6" rx="1" fill="#1A73E8"/>
  <rect x="12" y="22" width="6" height="4" rx="0.5" fill="#fff" opacity="0.9"/>
  <rect x="21" y="22" width="6" height="4" rx="0.5" fill="#fff" opacity="0.9"/>
  <rect x="30" y="22" width="6" height="4" rx="0.5" fill="#fff" opacity="0.9"/>
  <rect x="12" y="29" width="6" height="4" rx="0.5" fill="#fff" opacity="0.9"/>
  <rect x="21" y="29" width="6" height="4" rx="0.5" fill="#fff" opacity="0.9"/>
  <rect x="30" y="29" width="6" height="4" rx="0.5" fill="#fff" opacity="0.9"/>
  <rect x="12" y="36" width="6" height="2" rx="0.5" fill="#fff" opacity="0.6"/>
  <rect x="21" y="36" width="6" height="2" rx="0.5" fill="#fff" opacity="0.6"/>
</svg>
