<svg xmlns="http://www.w3.org/2000/svg" viewBox="0 0 48 48" width="48" height="48">
  <path fill="#1976D2" d="M28 13h14v10H28z"/>
  <path fill="#2196F3" d="M28 23h14v10H28z"/>
  <path fill="#0D47A1" d="M28 33h14v2c0 1.1-.9 2-2 2H28V33z"/>
  <path fill="#42A5F5" d="M28 13h12c1.1 0 2 .9 2 2v-2H28z"/>
  <path fill="#1565C0" d="M28 13v24l-22-3V16l22-3z"/>
  <path fill="#E3F2FD" d="M22 20.9c-.7-.5-1.5-.9-2.5-.9-2.5 0-4.5 2.2-4.5 5s2 5 4.5 5c1 0 1.8-.3 2.5-.9v-1.6c-.5.8-1.4 1.3-2.3 1.3-1.8 0-3.2-1.6-3.2-3.8s1.4-3.8 3.2-3.8c.9 0 1.8.5 2.3 1.3V20.9z"/>
</svg>
