<svg xmlns="http://www.w3.org/2000/svg" viewBox="0 0 64 64" fill="none">
  <rect width="64" height="64" rx="14" fill="#E60023"/>
  <path d="M32 10c-12.2 0-22 9.8-22 22 0 9.3 5.8 17.3 14 20.5-.2-1.7-.3-4.4.1-6.3.3-1.7 2.1-9 2.1-9s-.5-1.1-.5-2.6c0-2.5 1.4-4.3 3.2-4.3 1.5 0 2.2 1.1 2.2 2.5 0 1.5-1 3.8-1.5 5.9-.4 1.8 1 3.2 2.7 3.2 3.3 0 5.8-3.5 5.8-8.4 0-4.4-3.2-7.5-7.7-7.5-5.2 0-8.3 3.9-8.3 8 0 1.6.6 3.3 1.4 4.2.1.2.2.3.1.5l-.5 2c-.1.3-.2.4-.5.3-1.9-.9-3-3.6-3-5.8 0-4.7 3.4-9 9.8-9 5.2 0 9.2 3.7 9.2 8.6 0 5.1-3.2 9.3-7.7 9.3-1.5 0-2.9-.8-3.4-1.7l-.9 3.5c-.3 1.3-1.2 2.9-1.8 3.9 1.4.4 2.8.6 4.3.6 12.2 0 22-9.8 22-22S44.2 10 32 10z" fill="#fff"/>
</svg>
