<svg xmlns="http://www.w3.org/2000/svg" viewBox="0 0 64 64" fill="none">
  <rect width="64" height="64" rx="14" fill="#000"/>
  <path d="M43.2 18.7c-2-1.4-3.3-3.7-3.5-6.2h-6.3v27.3c0 3.4-2.8 6.2-6.2 6.2s-6.2-2.8-6.2-6.2 2.8-6.2 6.2-6.2c.7 0 1.3.1 1.9.3v-6.4c-.6-.1-1.3-.1-1.9-.1-7 0-12.7 5.7-12.7 12.7s5.7 12.7 12.7 12.7 12.7-5.7 12.7-12.7V25c2.3 1.7 5.2 2.7 8.3 2.7v-6.4c-2.1 0-4-.7-5.5-1.8" fill="#fff"/>
  <path d="M43.2 18.7c-2-1.4-3.3-3.7-3.5-6.2h-6.3v27.3c0 3.4-2.8 6.2-6.2 6.2s-6.2-2.8-6.2-6.2 2.8-6.2 6.2-6.2c.7 0 1.3.1 1.9.3v-6.4c-.6-.1-1.3-.1-1.9-.1-7 0-12.7 5.7-12.7 12.7s5.7 12.7 12.7 12.7 12.7-5.7 12.7-12.7V25c2.3 1.7 5.2 2.7 8.3 2.7v-6.4c-2.1 0-4-.7-5.5-1.8" fill="#25F4EE" opacity="0.5" transform="translate(-1, -1)"/>
  <path d="M43.2 18.7c-2-1.4-3.3-3.7-3.5-6.2h-6.3v27.3c0 3.4-2.8 6.2-6.2 6.2s-6.2-2.8-6.2-6.2 2.8-6.2 6.2-6.2c.7 0 1.3.1 1.9.3v-6.4c-.6-.1-1.3-.1-1.9-.1-7 0-12.7 5.7-12.7 12.7s5.7 12.7 12.7 12.7 12.7-5.7 12.7-12.7V25c2.3 1.7 5.2 2.7 8.3 2.7v-6.4c-2.1 0-4-.7-5.5-1.8" fill="#FE2C55" opacity="0.5" transform="translate(1, 1)"/>
</svg>
